#!OML:ASF F:\VICON\USERDATA\INSTALL\rory3\rory3.ASF
:FULLY-SPECIFIED
:DEGREES
1375
root 1.40806 10.1615 -5.01264 166.928 126.363 184.204
lowerback 27.4926 0.0113156 -2.68695
upperback 11.6048 0.0886675 1.79516
thorax -2.22909 0.179357 3.46609
lowerneck -14.8794 0.719198 -9.72733
upperneck 31.1151 4.55338 -0.302021
head 12.6928 1.00982 2.27572
rclavicle 1.86858e-014 -1.74931e-014
rhumerus -25.911 25.9466 -79.9285
rradius 96.2562
rwrist 41.799
rhand -36.6509 8.43836
rfingers 7.12502
rthumb -9.7378 -21.3165
lclavicle 1.86858e-014 -1.74931e-014
lhumerus -26.7378 -22.6725 92.831
lradius 95.4776
lwrist -33.9143
lhand -30.6459 31.2031
lfingers 7.12502
lthumb -3.94118 61.1464
rfemur -70.281 -19.2279 -0.977408
rtibia 117.05
rfoot -6.35518 -4.81347
rtoes 10.3486
lfemur -68.742 11.266 -6.61513
ltibia 104.368
lfoot -13.9172 -21.1726
ltoes -6.05855
1376
root 1.39885 10.1561 -5.02685 166.798 126.305 184.423
lowerback 27.489 0.0602547 -2.72956
upperback 11.5575 0.134108 1.72435
thorax -2.28385 0.203361 3.39991
lowerneck -15.0115 0.737697 -9.43747
upperneck 31.006 4.52721 -0.391933
head 12.683 1.02136 2.18855
rclavicle -6.55989e-015 1.59028e-014
rhumerus -26.0708 25.6471 -80.3032
rradius 96.4931
rwrist 42.1882
rhand -36.243 8.52977
rfingers 7.12502
rthumb -9.34428 -21.2431
lclavicle -6.55989e-015 1.59028e-014
lhumerus -26.0805 -22.4274 92.5632
lradius 95.1595
lwrist -34.2444
lhand -29.8182 31.0348
lfingers 7.12502
lthumb -3.14191 60.9914
rfemur -70.5538 -19.342 -0.743015
rtibia 117.097
rfoot -5.8715 -3.87541
rtoes 11.0028
lfemur -68.4018 10.9064 -6.66542
ltibia 104.313
lfoot -14.0668 -21.0006
ltoes -6.43762
1377
root 1.39023 10.1513 -5.04055 166.572 126.245 184.48
lowerback 27.4403 0.0667234 -2.75073
upperback 11.4924 0.134322 1.74478
thorax -2.33396 0.202276 3.43412
lowerneck -14.8944 0.792541 -9.21782
upperneck 30.763 4.5615 -0.566449
head 12.5658 1.05064 2.08231
rclavicle -7.55382e-015 7.95139e-015
rhumerus -26.258 25.5134 -80.548
rradius 96.7483
rwrist 42.551
rhand -35.8844 8.58829
rfingers 7.12502
rthumb -8.99822 -21.1998
lclavicle -7.55382e-015 7.95139e-015
lhumerus -25.721 -22.0785 92.4272
lradius 94.9779
lwrist -34.5806
lhand -29.3448 31.3213
lfingers 7.12502
lthumb -2.68473 61.2841
rfemur -70.809 -19.4453 -0.369791
rtibia 117.086
rfoot -5.755 -2.47891
rtoes 9.64503
lfemur -68.1599 10.6372 -6.65843
ltibia 104.283
lfoot -14.2302 -20.8448
ltoes -7.4227
1378
root 1.38437 10.1446 -5.0517 166.32 126.185 184.511
lowerback 27.3389 0.00982568 -2.73166
upperback 11.5238 0.0697789 1.75436
thorax -2.24661 0.16917 3.45116
lowerneck -14.9595 0.842385 -9.17677
upperneck 30.5274 4.63809 -0.673956
head 12.4837 1.08253 2.04128
rclavicle 5.64548e-014 -4.29375e-014
rhumerus -26.1978 25.5405 -80.7129
rradius 96.966
rwrist 42.9343
rhand -35.5618 8.49221
rfingers 7.12502
rthumb -8.68697 -21.309
lclavicle 5.64548e-014 -4.29375e-014
lhumerus -25.2717 -21.7268 92.2456
lradius 94.6675
lwrist -34.3295
lhand -29.5755 31.6414
lfingers 7.12502
lthumb -2.90754 61.6013
rfemur -70.9938 -19.5767 0.0379694
rtibia 117.01
rfoot -5.60343 -0.34922
rtoes 8.05598
lfemur -67.9102 10.3646 -6.6292
ltibia 104.283
lfoot -14.2713 -20.752
ltoes -8.00082
1379
root 1.38384 10.1325 -5.06061 166.195 126.106 184.633
lowerback 27.1606 -0.0335871 -2.73334
upperback 11.5619 0.0182372 1.76227
thorax -2.1168 0.140825 3.47376
lowerneck -15.1554 0.902496 -9.26749
upperneck 30.3753 4.75064 -0.657828
head 12.4547 1.12612 2.0787
rclavicle -3.22031e-014 1.74931e-014
rhumerus -26.0726 25.4946 -80.8398
rradius 97.1456
rwrist 43.2762
rhand -35.1099 8.32636
rfingers 7.12502
rthumb -8.2508 -21.4925
lclavicle -3.22031e-014 1.74931e-014
lhumerus -24.5855 -21.1347 92.1122
lradius 94.1446
lwrist -34.2339
lhand -29.6117 30.8476
lfingers 7.12502
lthumb -2.9425 60.807
rfemur -71.2366 -19.8644 0.425614
rtibia 116.895
rfoot -5.29256 2.25593
rtoes 7.39873
lfemur -67.7622 10.0908 -6.68187
ltibia 104.356
lfoot -14.2935 -20.6651
ltoes -7.85469
